<svg xmlns="http://www.w3.org/2000/svg" xmlns:xlink="http://www.w3.org/1999/xlink"><defs>
<clipPath id="clip0_4279_133724">
<rect width="24" height="24" fill="white"/>
</clipPath>

  <clipPath id="clip0_6603_118679">
  <rect width="24" height="24" fill="white"/>
  </clipPath>
  </defs><symbol id="svg-sprite"><symbol id="svg-sprite">

  <symbol id="arrow-se" viewBox="0 0 16 16">
    <path fill-rule="evenodd" clip-rule="evenodd" d="M16 0v16H0v-2h12.582L.105 1.524 1.52.109 14 12.59V0h2z"/>
  </symbol>

  <symbol id="info" viewBox="0 0 4 18">
    <path d="M0 6h4v12H0zM0 4h4V0H0z"/>
  </symbol>

  <symbol id="plus" viewBox="0 0 24 24"><path fill-rule="evenodd" d="M14 10V0h-4v10H0v4h10v10h4V14h10v-4H14z" clip-rule="evenodd"/></symbol>

  <symbol id="arrow-tangle" viewBox="0 0 24 24"><path fill-rule="evenodd" d="M24 0v24H0v-4h16.964L.09 3.125 2.918.297 20 17.379V0h4z" clip-rule="evenodd"/></symbol><symbol id="arrow-w" viewBox="0 0 16 16"><path d="M8.707 2.707L9.414 2 8 .586l-.707.707 1.414 1.414zM2 8l-.707-.707L.586 8l.707.707L2 8zm5.293 6.707l.707.707L9.414 14l-.707-.707-1.414 1.414zm0-13.414l-6 6 1.414 1.414 6-6-1.414-1.414zm-6 7.414l6 6 1.414-1.414-6-6-1.414 1.414zM2 9h12V7H2v2z"/></symbol>

  <symbol id="calendar" viewBox="0 0 32 32"><path fill-opacity=".4" fill-rule="evenodd" d="M12 1.334H9.332v2.667H2.666v24h26.667V4h-6.667V1.334h-2.667v2.667h-8V1.334zm14.666 5.333h-4v2.667h-2.667V6.667h-8v2.667H9.333V6.667h-4v5.334h21.333V6.667zm0 8H5.333v10.667h21.333V14.667z" clip-rule="evenodd"/></symbol>

  <symbol id="chevron-n" viewBox="0 0 16 10">
    <path fill-rule="evenodd" d="M8.032 2.843l6.518 6.519 1.415-1.414-6.519-6.519.002-.001L8.033.014l-.001.001-.01-.01-1.415 1.414.01.01L.069 7.98l1.414 1.414 6.55-6.55z" clip-rule="evenodd"/>
  </symbol>

  <symbol id="clear" viewBox="0 0 24 24"><path d="M16 0H8v2h8V0zM10.5 8h-2v12h2V8zM13.5 8h2v12h-2V8z"/><path fill-rule="evenodd" d="M20 6h2V4H2v2h2v18h16V6zm-2 16H6V6h12v16z" clip-rule="evenodd"/></symbol>

<symbol id="award" viewBox="0 0 32 32">
<path d="M15.867-0.021l3.801 3.801 5.283 0.48-0.637 5.418 2.862 4.453-4.472 2.875-1.756 4.948-5.075-1.745-4.951 1.757-1.756-4.949-4.62-2.868 2.874-4.471-0.637-5.418 5.283-0.48 3.801-3.801zM15.867 3.75l-2.599 2.599-3.517 0.32 0.429 3.648-1.926 2.996 3.113 1.932 1.177 3.317 3.316-1.177 3.459 1.189 1.177-3.318 2.995-1.925-1.937-3.014 0.429-3.648-3.517-0.32-2.599-2.599z"/>
<path d="M26.138 19.426l3.674 7.734-6.879-1.376-2.687 6.271-3.43-6.646 2.37-1.223 0.837 1.621 1.313-3.062 3.788 0.758-1.393-2.933 2.409-1.144z"/>
<path d="M6.116 23.185l1.591-2.955-2.348-1.264-4.009 7.445 7.363-0.837 2.336 6.289 3.827-6.379-2.287-1.372-0.973 1.621-1.131-3.045-4.37 0.497z"/>
</symbol>

  <symbol id="book" viewBox="0 0 32 31">
    <path d="M13.333 10.667h-8V8h8v2.667zM5.333 16h8v-2.667h-8V16zM13.333 21.333h-8v-2.666h8v2.666zM18.667 16h8v-2.667h-8V16zM26.667 21.333h-8v-2.666h8v2.666zM18.667 10.667h8V8h-8v2.667z"/>
    <path fill-rule="evenodd" d="M0 0h13.333v1.333c0 .147.064.398.704.68.62.273 1.426.387 1.963.387.613 0 1.412-.117 2.004-.383.591-.265.663-.506.663-.684V0H32v28.533H21.038c-.436.906-1.279 1.47-2.001 1.787-1.046.46-2.24.613-3.037.613-.797 0-1.99-.152-3.037-.613-.722-.317-1.565-.881-2.001-1.787H0V0zm2.667 2.667v23.2h10.666V27.2c0 .147.064.398.704.68.62.273 1.426.387 1.963.387.537 0 1.343-.114 1.963-.387.64-.282.704-.533.704-.68v-1.333h10.666v-23.2h-8.288c-.417.888-1.22 1.456-1.949 1.783-1.04.467-2.242.617-3.096.617-.797 0-1.99-.153-3.037-.613-.722-.318-1.565-.882-2.001-1.787H2.667z" clip-rule="evenodd"/>
  </symbol>

  <symbol id="document" viewBox="0 0 32 32">
    <path d="M24.001 26.667h-16V24h16v2.667zM8.001 21.333h16v-2.666h-16v2.666zM24.001 16h-16v-2.667h16V16zM8.001 8h9.334V5.333H8V8z"/>
    <path fill-rule="evenodd" d="M2.668 0H23.22l6.115 6.114V32H2.668V0zm2.667 2.667v26.666h21.333V7.22l-4.552-4.552H5.335z" clip-rule="evenodd"/>
  </symbol>

<symbol id="information" viewBox="0 0 32 32">
<path d="M21.599 27.333v-2.667h-17.333v2.667h17.333z"/>
<path d="M28 14v-2.667h-24v2.667h24z"/>
<path d="M28 20.667v-2.667h-24v2.667h24z"/>
<path d="M28 7.333v-2.667h-24v2.667h24z"/>
</symbol>

  <symbol id="list" viewBox="0 0 21 18">
    <path d="M20.6.5h-13v2h13v-2zM.6 5.5h4v2h-4v-2zM7.6 5.5h13v2h-13v-2zM.6.5h4v2h-4v-2zM20.6 10.5h-13v2h13v-2zM.6 10.5h4v2h-4v-2zM20.6 15.5h-13v2h13v-2zM.6 15.5h4v2h-4v-2z"/>
  </symbol>

  <symbol id="cross" viewBox="0 0 24 24">
    <path stroke-linecap="square" stroke-width="2" d="M17.656 17.657L6.343 6.343M17.657 6.343L6.344 17.657"/>
  </symbol>

  <symbol id="check" viewBox="0 0 14 11">
    <path stroke-width="2" d="M1 4.25l4.5 4.5 7.5-7.5"/>
  </symbol>

  <symbol id="download" viewBox="0 0 24 24">
    <path fill-rule="evenodd" d="M24 24H0v-8h4v4h16v-4h4v8z" clip-rule="evenodd"/>
    <path d="M14 0v12h-4V0z"/>
    <path fill-rule="evenodd" d="M11.998 17.39L23.98 5.407l-2.828-2.829-9.166 9.167-9.159-9.159L0 5.415 11.985 17.4l.011-.011.002.001z" clip-rule="evenodd"/>
  </symbol>

  <symbol id="search" viewBox="0 0 24 24">
    <path fill-rule="evenodd" d="M0 9.5a9.5 9.5 0 1119 0 9.46 9.46 0 01-2.113 5.973l5.82 5.82-1.414 1.414-5.82-5.82A9.46 9.46 0 019.5 19 9.5 9.5 0 010 9.5zm15.335 4.712l-1.123 1.123a7.5 7.5 0 111.123-1.123z" clip-rule="evenodd"/>
  </symbol>

  <symbol id="arrow-e" viewBox="0 0 16 16">
    <path d="M7.293 13.293L6.586 14 8 15.414l.707-.707-1.414-1.414zM14 8l.707.707.707-.707-.707-.707L14 8zM8.707 1.293L8 .586 6.586 2l.707.707 1.414-1.414zm0 13.414l6-6-1.414-1.414-6 6 1.414 1.414zm6-7.414l-6-6-1.414 1.414 6 6 1.414-1.414zM14 7H2v2h12V7z"/>
  </symbol>

  <symbol id="arrow-w" viewBox="0 0 16 16">
    <path d="M8.707 2.707L9.414 2 8 .586l-.707.707 1.414 1.414zM2 8l-.707-.707L.586 8l.707.707L2 8zm5.293 6.707l.707.707L9.414 14l-.707-.707-1.414 1.414zm0-13.414l-6 6 1.414 1.414 6-6-1.414-1.414zm-6 7.414l6 6 1.414-1.414-6-6-1.414 1.414zM2 9h12V7H2v2z"/>
  </symbol>



<symbol id="order-s" viewBox="0 0 32 32">
<path d="M10 32c-1.067 0-2-0.933-2-2s0.933-2 2-2c1.067 0 2 0.933 2 2s-0.933 2-2 2z"/>
<path d="M27.333 32c-1.067 0-2-0.933-2-2s0.933-2 2-2c1.067 0 2 0.933 2 2s-0.933 2-2 2z"/>
<path d="M5.2 2.667l0.533-2.667h4.533l-0.4 2.667h-4.667z"/>
<path d="M6.133 26.667l0.4-2.667h25.467l-0.533 2.667h-25.333z"/>
<path d="M11.6 21.333l0.533-2.667h16.667l-0.4 2.667h-16.8z"/>
<path d="M14.8 5.333l0.533-2.667h16.667l-0.533 2.667h-16.667z"/>
<path d="M10.4 0h2.667l-5.067 26.667h-2.667l5.067-26.667z"/>
<path d="M14.8 5.333h2.667l-2.667 13.333h-2.667l2.667-13.333z"/>
<path d="M28.8 5.333h2.667l-2.667 13.333h-2.667l2.667-13.333z"/>
<path d="M6.4 8h-6.4l0.533-2.667h6.4l-0.533 2.667z"/>
<path d="M5.467 13.333h-5.467l0.533-2.667h5.467l-0.533 2.667z"/>
<path d="M4.4 18.667h-4.4l0.533-2.667h4.4l-0.533 2.667z"/>
</symbol>
<symbol id="order-l" viewBox="0 0 32 32">
<path d="M8.667 32c-1.067 0-2-0.933-2-2s0.933-2 2-2c1.067 0 2 0.933 2 2s-0.933 2-2 2z"/>
<path d="M26 32c-1.067 0-2-0.933-2-2s0.933-2 2-2c1.067 0 2 0.933 2 2s-0.933 2-2 2z"/>
<path d="M4 2.667v-2.667h-4v2.667h4z"/>
<path d="M30.667 26.667v-2.667h-25.333v2.667h25.333z"/>
<path d="M27.352 21.313v-2.667h-17.333v2.667h17.333z"/>
<path d="M27.352 5.313v-2.667h-17.333v2.667h17.333z"/>
<path d="M4 26.667h2.667v-26.667h-2.667v26.667z"/>
<path d="M10.029 18.667h2.667v-13.333h-2.667v13.333z"/>
<path d="M24.703 18.667h2.667v-13.333h-2.667v13.333z"/>


  <symbol id="arrow-pagination" viewBox="0 0 10 16" xmlns="http://www.w3.org/2000/svg">
    <path fill-rule="evenodd" clip-rule="evenodd" d="M2.66973 8.0251L9.54036 1.15446L8.4764 0.0904942L0.533446 8.03345L1.59741 9.09741L1.60701 9.08781L8.5096 15.9904L9.57231 14.9277L2.66973 8.0251Z"/>
  </symbol>

  <symbol id="arrow-long" viewBox="0 0 14 16" fill="none" xmlns="http://www.w3.org/2000/svg">
    <path d="M8.70711 2.70711L9.41421 2L8 0.585786L7.29289 1.29289L8.70711 2.70711ZM2 8L1.29289 7.29289L0.585786 8L1.29289 8.70711L2 8ZM7.29289 14.7071L8 15.4142L9.41421 14L8.70711 13.2929L7.29289 14.7071ZM7.29289 1.29289L1.29289 7.29289L2.70711 8.70711L8.70711 2.70711L7.29289 1.29289ZM1.29289 8.70711L7.29289 14.7071L8.70711 13.2929L2.70711 7.29289L1.29289 8.70711ZM2 9L14 9V7L2 7L2 9Z" fill="#4F5659" fill-opacity="0.4"/>
  </symbol>

  <symbol id="question-red" viewBox="0 0 7 12" xmlns="http://www.w3.org/2000/svg">
    <path d="M6.16 3.568C6.16 3.856 6.13333 4.112 6.08 4.336C6.02667 4.54933 5.95733 4.752 5.872 4.944C5.78667 5.12533 5.68533 5.30133 5.568 5.472C5.46133 5.632 5.344 5.80267 5.216 5.984C5.10933 6.144 4.98133 6.30933 4.832 6.48C4.69333 6.65067 4.56 6.832 4.432 7.024C4.31467 7.20533 4.21333 7.39733 4.128 7.6C4.04267 7.80267 4 8.016 4 8.24V9.28H2.992V8.368C2.992 7.696 3.17867 7.10933 3.552 6.608C3.744 6.34133 3.93067 6.096 4.112 5.872C4.29333 5.63733 4.45333 5.41333 4.592 5.2C4.74133 4.976 4.85867 4.752 4.944 4.528C5.04 4.29333 5.088 4.048 5.088 3.792C5.088 3.536 5.06133 3.28533 5.008 3.04C4.96533 2.79467 4.88 2.576 4.752 2.384C4.624 2.192 4.448 2.03733 4.224 1.92C4 1.80267 3.712 1.744 3.36 1.744C3.104 1.744 2.86933 1.79733 2.656 1.904C2.44267 2 2.256 2.13333 2.096 2.304C1.94667 2.47467 1.824 2.672 1.728 2.896C1.64267 3.10933 1.58933 3.33333 1.568 3.568C1.39733 3.536 1.232 3.50933 1.072 3.488C0.912 3.456 0.741333 3.42933 0.56 3.408C0.698667 2.52267 1.02933 1.86667 1.552 1.44C2.08533 1.00267 2.70933 0.783999 3.424 0.783999C4.34133 0.783999 5.024 1.04533 5.472 1.568C5.93067 2.08 6.16 2.74667 6.16 3.568ZM2.944 12V10.848H4.032V12H2.944Z"/>
  </symbol>

  <symbol id="check-mark" viewBox="0 0 14 11" fill="none" xmlns="http://www.w3.org/2000/svg">
    <path d="M1 4.25L5.5 8.75L13 1.25" stroke="#DD2B1C" stroke-width="2"/>
  </symbol>

  <symbol id="arrow-red" viewBox="0 0 12 12" xmlns="http://www.w3.org/2000/svg">
    <path fill-rule="evenodd" clip-rule="evenodd" d="M5.99482 7.41133L1.10651 2.52301L0.0427611 3.58676L4.93108 8.47507L4.93059 8.47556L5.99125 9.53622L5.99174 9.53573L5.99998 9.54397L7.06372 8.48022L7.05548 8.47199L11.9654 3.56207L10.9047 2.50141L5.99482 7.41133Z"/>
  </symbol>

  <symbol id="basket" viewBox="0 0 20 24" xmlns="http://www.w3.org/2000/svg">
    <path d="M14 0L6 0V2L14 2V0Z"/>
    <path d="M8.5 8H6.5L6.5 20H8.5L8.5 8Z"/>
    <path d="M11.5 8H13.5L13.5 20H11.5L11.5 8Z"/>
    <path fill-rule="evenodd" clip-rule="evenodd" d="M18 6L20 6V4L0 4L0 6H2L2 24L18 24L18 6ZM16 22L4 22L4 6L16 6L16 22Z"/>
  </symbol>

  <symbol id="sorting" viewBox="0 0 18 18" xmlns="http://www.w3.org/2000/svg">
    <path d="M7.50015 0H17.5002V2H7.50015V0Z"/>
    <path d="M7.50015 4H15.5002V6H7.50015V4Z"/>
    <path d="M7.50015 8V10H13.5002V8H7.50015Z"/>
    <path d="M7.50015 11.5858L5.50015 13.5858V0H3.50015V13.5858L1.50015 11.5858L0.0859375 13L4.50015 17.4142L8.91436 13L7.50015 11.5858Z"/>
  </symbol>

  <symbol id="filters" viewBox="0 0 18 22" xmlns="http://www.w3.org/2000/svg">
    <path fill-rule="evenodd" clip-rule="evenodd" d="M0 0.299805V5.68641L6 12.2864V21.666L8.49285 20.1703L12 18.2998V12.2864L18 5.68641V0.299805H0ZM10 17.0998L8 18.1665V11.5132L2.35146 5.2998H15.6485L10 11.5132V17.0998ZM16 3.2998H2V2.2998H16V3.2998Z"/>

  </symbol>


  <symbol id="close" viewBox="0 0 16 16" xmlns="http://www.w3.org/2000/svg">
    <path d="M13.6564 13.6566L2.3427 2.34285" stroke="#110101" stroke-width="2" stroke-linecap="square"/>
    <path d="M13.6573 2.34285L2.34359 13.6566" stroke="#110101" stroke-width="2" stroke-linecap="square"/>
  </symbol>

  <symbol id="download-catalog" viewBox="0 0 24 24" xmlns="http://www.w3.org/2000/svg">
    <path fill-rule="evenodd" clip-rule="evenodd" d="M24 16V24H22L2 24H0L0 22L0 16H2L2 22L22 22V16H24Z"/>
    <path fill-rule="evenodd" clip-rule="evenodd" d="M13.0002 15.0858L13.0001 2.5H11.0001L11.0002 15.0858L5.20726 9.29289L4.50015 8.58579L3.08594 10L3.79304 10.7071L11.293 18.2071L12.0002 18.9142L12.7073 18.2071L20.2073 10.7071L20.9144 10L19.5001 8.58578L18.793 9.29289L13.0002 15.0858Z"/>
  </symbol>

  <symbol id="arrow" viewBox="0 0 10 16" xmlns="http://www.w3.org/2000/svg">
    <path fill-rule="evenodd" clip-rule="evenodd" d="M2.17168 8.02705L9.04232 1.15641L7.97835 0.0924473L0.0353991 8.0354L1.09937 9.09937L1.10897 9.08977L8.01155 15.9924L9.07427 14.9296L2.17168 8.02705Z"/>
  </symbol>

  <symbol id="arrow-slider" viewBox="0 0 25 22" xmlns="http://www.w3.org/2000/svg">
    <path fill-rule="evenodd" clip-rule="evenodd" d="M14 0.585938L24.4142 11.0002L14 21.4144L12.5858 20.0002L20.5858 12.0002L0 12.0002L0 10.0002L20.5858 10.0002L12.5858 2.00015L14 0.585938Z"/>
  </symbol>

  <symbol id="print" viewBox="0 0 24 24" xmlns="http://www.w3.org/2000/svg">
    <path fill-rule="evenodd" clip-rule="evenodd" d="M18 2V6H22V18H18V21H6V18H2V6H6V2H18ZM16 6V4H8V6H16ZM8 19H16V16H8V19ZM18 14V16H20V8H4V16H6V14H18Z" fill-opacity="0.4"/>
  </symbol>
<symbol id="videoPlay" viewBox="0 0 28 35" fill="none" xmlns="http://www.w3.org/2000/svg">
    <path d="M2.66797 3.66602V30.3327L24.0013 16.5674L2.66797 3.66602Z" stroke-width="4" stroke-miterlimit="10"/>
    </symbol>
    <symbol id="abouticon" viewBox="0 0 24 24" fill="none" xmlns="http://www.w3.org/2000/svg">
    <path d="M13 12H11V7H13V12Z" fill="#DD2B1C"/>
    <path fill-rule="evenodd" clip-rule="evenodd" d="M10.3333 1C9.02881 1 7.92354 1.71306 7.17917 2.70556C6.43419 3.69886 6 5.02491 6 6.44444V17.5556C6 18.9751 6.43419 20.3011 7.17917 21.2944C7.92354 22.2869 9.02881 23 10.3333 23H13.6667C14.9712 23 16.0765 22.2869 16.8208 21.2944C17.5658 20.3011 18 18.9751 18 17.5556V6.44444C18 5.02491 17.5658 3.69886 16.8208 2.70556C16.0765 1.71306 14.9712 1 13.6667 1H10.3333ZM8 6.44444C8 5.41954 8.31581 4.52337 8.77917 3.90556C9.24313 3.28694 9.80452 3 10.3333 3H13.6667C14.1955 3 14.7569 3.28694 15.2208 3.90556C15.6842 4.52337 16 5.41954 16 6.44444V17.5556C16 18.5805 15.6842 19.4766 15.2208 20.0944C14.7569 20.7131 14.1955 21 13.6667 21H10.3333C9.80452 21 9.24313 20.7131 8.77917 20.0944C8.31581 19.4766 8 18.5805 8 17.5556V6.44444Z" fill="#DD2B1C"/>
    </symbol>
    <symbol id="onPrint" viewBox="0 0 24 24" fill="none" xmlns="http://www.w3.org/2000/svg">
    <path fill-rule="evenodd" clip-rule="evenodd" d="M18 2V6H22V18H18V21H6V18H2V6H6V2H18ZM16 6V4H8V6H16ZM8 19H16V16H8V19ZM18 14V16H20V8H4V16H6V14H18Z" fill="#4F5659" fill-opacity="0.4"/>
    </symbol>
 
    <symbol id="phone" viewBox="0 0 16 16" xmlns="http://www.w3.org/2000/svg">
    <path d="M13.9996 10.9843V12.7908C14.0003 12.9585 13.9659 13.1245 13.8986 13.2781C13.8313 13.4318 13.7325 13.5697 13.6087 13.6831C13.4849 13.7965 13.3387 13.8828 13.1795 13.9365C13.0203 13.9903 12.8517 14.0102 12.6843 13.9951C10.8277 13.7938 9.04426 13.1606 7.47734 12.1465C6.01953 11.222 4.78356 9.98844 3.8572 8.53351C2.83752 6.96259 2.20294 5.17405 2.0049 3.31277C1.98982 3.14625 2.00965 2.97843 2.06312 2.81998C2.11659 2.66153 2.20254 2.51592 2.31548 2.39244C2.42843 2.26896 2.5659 2.1703 2.71915 2.10274C2.87239 2.03519 3.03805 2.00022 3.20558 2.00006H5.01565C5.30846 1.99718 5.59233 2.10067 5.81435 2.29122C6.03637 2.48178 6.18138 2.74641 6.22236 3.03578C6.29876 3.61389 6.44044 4.18152 6.64471 4.72785C6.72589 4.94338 6.74346 5.17761 6.69534 5.4028C6.64722 5.62799 6.53542 5.83469 6.3732 5.99841L5.87986 6.38703C6.73877 7.89457 8.16556 9.31869 9.67609 10.1759L9.99334 9.61138C10.1574 9.44948 10.3645 9.33791 10.5901 9.28988C10.8158 9.24185 11.0505 9.25939 11.2664 9.34041C11.8138 9.54427 12.3826 9.68567 12.9619 9.76192C13.2549 9.80318 13.5226 9.95052 13.714 10.1759C13.9053 10.4013 14.007 10.689 13.9996 10.9843Z" stroke-width="1.33333" stroke-linecap="round"/>
    </symbol>
    <symbol id="mail" viewBox="0 0 16 16" xmlns="http://www.w3.org/2000/svg">
    <path fill-rule="evenodd" clip-rule="evenodd" d="M0.666748 2.66602V13.3327H15.3334V2.66602H0.666748ZM2.00008 4.82959V11.9993H14.0001V4.82959L8.00008 10.2296L2.00008 4.82959ZM12.9294 3.99935H3.07072L8.00008 8.43577L12.9294 3.99935Z"/>
    </symbol>
    <symbol id="burger" viewBox="0 0 16 16" xmlns="http://www.w3.org/2000/svg">
        <path d="M14.6666 5.33333V4L1.33325 4L1.33325 5.33333H14.6666Z"/>
        <path d="M14.6666 8.66667V7.33333H1.33325L1.33325 8.66667H14.6666Z"/>
        <path d="M14.6666 12V10.6667H1.33325L1.33325 12H14.6666Z"/>
    </symbol>
    <symbol id="loope" viewBox="0 0 16 16" xmlns="http://www.w3.org/2000/svg">
        <path fill-rule="evenodd" clip-rule="evenodd" d="M0 6.33333C0 2.83553 2.83553 0 6.33333 0C9.83114 0 12.6667 2.83553 12.6667 6.33333C12.6667 7.8421 12.1391 9.22764 11.2584 10.3155L15.1381 14.1953L14.1953 15.1381L10.3155 11.2584C9.22764 12.1391 7.8421 12.6667 6.33333 12.6667C2.83553 12.6667 0 9.83114 0 6.33333ZM10.2233 9.47491L9.47491 10.2233C8.61639 10.9176 7.52341 11.3333 6.33333 11.3333C3.57191 11.3333 1.33333 9.09476 1.33333 6.33333C1.33333 3.57191 3.57191 1.33333 6.33333 1.33333C9.09476 1.33333 11.3333 3.57191 11.3333 6.33333C11.3333 7.52341 10.9176 8.61639 10.2233 9.47491Z"/>
    </symbol>
<symbol id="productIcon" viewBox="0 0 32 32">
<path d="M23.288 0.354l0.399 0.029c1.862 0.137 3.665 1.072 5.153 2.652 3.233 3.313 3.299 7.863 0.129 10.972l-4.588 4.526c0.306-1.243 0.249-2.557-0.17-3.774l2.847-2.826c1.59-1.621 2.467-4.122-0.477-7.066-1.757-1.757-2.706-1.817-3.581-1.873-0.064-0.004-0.127-0.008-0.191-0.013-0.943 0-2.261 0.844-2.984 1.593l-5.911 5.849c-0.733 0.882-1.059 2.327-1.004 3.401 0.065 0.941 0.623 2.892 1.495 3.758 0.673 0.673 0.437 1.512 0.437 1.512s-0.11 0.435-0.519 0.858c-0.723 0.749-1.339 0.501-2.078-0.355-1.621-1.59-2.538-3.663-2.534-5.534-0.119-2.014 0.692-3.96 2.282-5.581l6.044-5.839c1.447-1.498 3.377-2.292 5.249-2.288z"/>
<path d="M7.020 13.424l-4.261 4.204c-3.17 3.109-3.103 7.66 0.129 10.972 1.611 1.723 3.69 2.544 5.694 2.558 1.871 0.004 3.669-0.8 5.249-2.288l5.911-5.849c1.59-1.621 2.391-3.434 2.405-5.438s-0.913-3.944-2.534-5.534c-0.749-0.724-1.875-1.275-2.599-0.526-0.857 0.739-0.281 1.625 0.468 2.348 0.872 0.866 1.821 2.831 1.886 3.771 0.074 0.808-0.68 2.565-1.403 3.314l-5.911 5.849c-0.724 0.749-1.776 1.125-3.056 1.208-1.668 0.107-3.153-0.59-4.025-1.456-1.744-1.733-1.74-5.49-0.151-7.111l2.744-2.724c-0.463-1.043-0.645-2.181-0.546-3.298z"/>
</symbol>
 
<symbol id="iconMinus" viewBox="0 0 24 24" xmlns="http://www.w3.org/2000/svg">
<rect y="10" width="24" height="4"/>
</symbol>


<symbol id="orderList" viewBox="0 0 32 32">
<path d="M8.667 32c-1.067 0-2-0.933-2-2s0.933-2 2-2c1.067 0 2 0.933 2 2s-0.933 2-2 2z"/>
<path d="M26 32c-1.067 0-2-0.933-2-2s0.933-2 2-2c1.067 0 2 0.933 2 2s-0.933 2-2 2z"/>
<path d="M4 2.667v-2.667h-4v2.667h4z"/>
<path d="M30.667 26.667v-2.667h-25.333v2.667h25.333z"/>
<path d="M27.352 21.313v-2.667h-17.333v2.667h17.333z"/>
<path d="M27.352 5.313v-2.667h-17.333v2.667h17.333z"/>
<path d="M4 26.667h2.667v-26.667h-2.667v26.667z"/>
<path d="M10.029 18.667h2.667v-13.333h-2.667v13.333z"/>
<path d="M24.703 18.667h2.667v-13.333h-2.667v13.333z"/>
</symbol>

    <symbol id="triangle" viewBox="0 0 13 12" xmlns="http://www.w3.org/2000/svg">
        <path fill-rule="evenodd" clip-rule="evenodd" d="M6.66181 7.41133L1.7735 2.52301L0.709753 3.58676L5.59807 8.47507L5.59758 8.47556L6.65824 9.53622L6.65873 9.53573L6.66697 9.54397L7.73071 8.48022L7.72247 8.47199L12.6324 3.56207L11.5717 2.50141L6.66181 7.41133Z" fill-opacity="0.4"/>
    </symbol>

    <symbol id="buyer" viewBox="0 0 24 21" xmlns="http://www.w3.org/2000/svg">
        <path d="M20.4 2H22.6V0H20.4V2Z"/>
        <path fill-rule="evenodd" clip-rule="evenodd" d="M4.20001 6.8C4.20001 3.6 6.80001 1 10 1C13.2 1 15.8 3.6 15.8 6.8C15.8 10 13.2 12.6 10 12.6C6.80001 12.6 4.20001 10 4.20001 6.8ZM13.8 6.8C13.8 4.7 12.1 3 10 3C7.90001 3 6.20001 4.7 6.20001 6.8C6.20001 8.9 7.90001 10.6 10 10.6C12.1 10.6 13.8 8.9 13.8 6.8Z"/>
        <path d="M5.06889 12.6166L0 14.3907V21.0002H2V15.8097L4.93111 14.7838L10 17.3182L15.0807 14.7779L18 15.7267V21.0002H20V14.2737L14.9193 12.6225L10 15.0822L5.06889 12.6166Z"/>
        <path d="M20.5 8V5H19V3H22.5V8H24V10H19V8H20.5Z"/>
    </symbol>



<symbol id="inWish" viewBox="0 0 32 32">
<path d="M10 32c-1.067 0-2-0.933-2-2s0.933-2 2-2c1.067 0 2 0.933 2 2s-0.933 2-2 2z"/>
<path d="M27.333 32c-1.067 0-2-0.933-2-2s0.933-2 2-2c1.067 0 2 0.933 2 2s-0.933 2-2 2z"/>
<path d="M5.2 2.667l0.533-2.667h4.533l-0.4 2.667h-4.667z"/>
<path d="M6.133 26.667l0.4-2.667h25.467l-0.533 2.667h-25.333z"/>
<path d="M11.6 21.333l0.533-2.667h16.667l-0.4 2.667h-16.8z"/>
<path d="M14.8 5.333l0.533-2.667h16.667l-0.533 2.667h-16.667z"/>
<path d="M10.4 0h2.667l-5.067 26.667h-2.667l5.067-26.667z"/>
<path d="M14.8 5.333h2.667l-2.667 13.333h-2.667l2.667-13.333z"/>
<path d="M28.8 5.333h2.667l-2.667 13.333h-2.667l2.667-13.333z"/>
<path d="M6.4 8h-6.4l0.533-2.667h6.4l-0.533 2.667z"/>
<path d="M5.467 13.333h-5.467l0.533-2.667h5.467l-0.533 2.667z"/>
<path d="M4.4 18.667h-4.4l0.533-2.667h4.4l-0.533 2.667z"/>
</symbol>
        <symbol id="how-to" width="24" height="24" viewBox="0 0 24 24" fill="none" xmlns="http://www.w3.org/2000/svg">
          <path fill-rule="evenodd" clip-rule="evenodd" d="M4 0L0 0L0 24L24 24V20L4 20L4 0ZM7.00015 4L17.1717 4L6.58594 14.5858L9.41436 17.4142L20.0002 6.82843L20.0002 17H24.0002L24.0002 0L7.00015 0L7.00015 4Z"/>
          </symbol>



<symbol id="inOrder" viewBox="0 0 32 32">
<path d="M8.667 32c-1.067 0-2-0.933-2-2s0.933-2 2-2c1.067 0 2 0.933 2 2s-0.933 2-2 2z"/>
<path d="M26 32c-1.067 0-2-0.933-2-2s0.933-2 2-2c1.067 0 2 0.933 2 2s-0.933 2-2 2z"/>
<path d="M4 2.667v-2.667h-4v2.667h4z"/>
<path d="M30.667 26.667v-2.667h-25.333v2.667h25.333z"/>
<path d="M27.352 21.313v-2.667h-17.333v2.667h17.333z"/>
<path d="M27.352 5.313v-2.667h-17.333v2.667h17.333z"/>
<path d="M4 26.667h2.667v-26.667h-2.667v26.667z"/>
<path d="M10.029 18.667h2.667v-13.333h-2.667v13.333z"/>
<path d="M24.703 18.667h2.667v-13.333h-2.667v13.333z"/>
</symbol>


<symbol id="fastOrder" viewBox="0 0 25 24" fill="none" xmlns="http://www.w3.org/2000/svg">
<path d="M8 24C7.2 24 6.5 23.3 6.5 22.5C6.5 21.7 7.2 21 8 21C8.8 21 9.5 21.7 9.5 22.5C9.5 23.3 8.8 24 8 24Z" fill="#DD2B1C"/>
<path d="M21 24C20.2 24 19.5 23.3 19.5 22.5C19.5 21.7 20.2 21 21 21C21.8 21 22.5 21.7 22.5 22.5C22.5 23.3 21.8 24 21 24Z" fill="#DD2B1C"/>
<path d="M4.4 2L4.8 0L8.2 0L7.9 2L4.4 2Z" fill="#DD2B1C"/>
<path d="M5.1 20L5.4 18L24.5 18L24.1 20L5.1 20Z" fill="#DD2B1C"/>
<path d="M9.2 16L9.6 14L22.1 14L21.8 16L9.2 16Z" fill="#DD2B1C"/>
<path d="M11.6 4L12 2L24.5 2L24.1 4L11.6 4Z" fill="#DD2B1C"/>
<path d="M8.3 0L10.3 0L6.5 20H4.5L8.3 0Z" fill="#DD2B1C"/>
<path d="M11.6 4H13.6L11.6 14H9.6L11.6 4Z" fill="#DD2B1C"/>
<path d="M22.1 4H24.1L22.1 14H20.1L22.1 4Z" fill="#DD2B1C"/>
<path d="M5.3 6L0.5 6L0.9 4L5.7 4L5.3 6Z" fill="#DD2B1C"/>
<path d="M4.6 10H0.5L0.9 8H5L4.6 10Z" fill="#DD2B1C"/>
<path d="M3.8 14H0.5L0.9 12H4.2L3.8 14Z" fill="#DD2B1C"/>
</symbol>


<symbol id="inOrderMob" viewBox="0 0 24 24" fill="none" xmlns="http://www.w3.org/2000/svg">
<g clip-path="url(#clip0_4279_133724)">
<path d="M6.5 24C5.7 24 5 23.3 5 22.5C5 21.7 5.7 21 6.5 21C7.3 21 8 21.7 8 22.5C8 23.3 7.3 24 6.5 24Z" fill="#DD2B1C"/>
<path d="M19.5 24C18.7 24 18 23.3 18 22.5C18 21.7 18.7 21 19.5 21C20.3 21 21 21.7 21 22.5C21 23.3 20.3 24 19.5 24Z" fill="#DD2B1C"/>
<path d="M3 2L3 0L0 0L0 2L3 2Z" fill="#DD2B1C"/>
<path d="M23 20V18L4 18V20L23 20Z" fill="#DD2B1C"/>
<path d="M20.5137 15.9844V13.9844L7.51367 13.9844V15.9844L20.5137 15.9844Z" fill="#DD2B1C"/>
<path d="M20.5137 3.98438V1.98438L7.51367 1.98437V3.98437L20.5137 3.98438Z" fill="#DD2B1C"/>
<path d="M3 20H5L5 0H3L3 20Z" fill="#DD2B1C"/>
<path d="M7.52148 14H9.52148L9.52148 4H7.52148L7.52148 14Z" fill="#DD2B1C"/>
<path d="M18.5273 14H20.5273L20.5273 4H18.5273L18.5273 14Z" fill="#DD2B1C"/>
</g>

</symbol>

<symbol id="arrowNew" width="24" height="24" viewBox="0 0 24 24" xmlns="http://www.w3.org/2000/svg">
<path fill-rule="evenodd" clip-rule="evenodd" d="M11.998 19.3903L23.9817 7.40655L21.1533 4.57812L11.9868 13.7446L2.82843 4.58624L0 7.41467L11.9852 19.3999L11.9964 19.3887L11.998 19.3903Z"/>
</symbol>

<symbol id="arrowBottom" viewBox="0 0 24 24" fill="none" xmlns="http://www.w3.org/2000/svg">
<path fill-rule="evenodd" clip-rule="evenodd" d="M24 0L24 20L24 24H20L0 24L0 20L16.9642 20L0.0895417 3.1253L2.91797 0.296875L20 17.3789L20 0L24 0Z" fill="#dd2b1c"/>
</symbol>

<symbol id="iconPlus" viewBox="0 0 24 24" fill="none" xmlns="http://www.w3.org/2000/svg">
<path fill-rule="evenodd" clip-rule="evenodd" d="M14 10L14 0L10 0L10 10L0 10L0 14L10 14L10 24L14 24L14 14L24 14L24 10L14 10Z"/>
</symbol>
<symbol id="sortMobile" viewBox="0 0 16 16" fill="none" xmlns="http://www.w3.org/2000/svg">
<path fill-rule="evenodd" clip-rule="evenodd" d="M9.00015 11.5858L9.00015 2H7.00015L7.00015 11.5858L2.70726 7.29289L2.00015 6.58579L0.585938 8L1.29304 8.70711L7.29305 14.7071L8.00015 15.4142L8.70726 14.7071L14.7073 8.70711L15.4144 8L14.0002 6.58579L13.293 7.29289L9.00015 11.5858Z" fill="#DD2B1C"/>
</symbol>

<symbol id="isTrue" viewBox="0 0 24 24" fill="none" xmlns="http://www.w3.org/2000/svg">
<path d="M3 12.5L9 18L21 7" stroke="#8AD80F" stroke-width="2" stroke-linecap="square"/>
</symbol>
<symbol id="optionsList" viewBox="0 0 32 32">
<path d="M30 7.333v-2.667h-28v2.667h28z"/>
<path d="M8.667 14v-2.667h-6.667v2.667h6.667z"/>
<path d="M30 14v-2.667h-6.667v2.667h6.667z"/>
<path d="M19.333 14v-2.667h-6.667v2.667h6.667z"/>
<path d="M8.667 20.667v-2.667h-6.667v2.667h6.667z"/>
<path d="M30 20.667v-2.667h-6.667v2.667h6.667z"/>
<path d="M19.333 20.667v-2.667h-6.667v2.667h6.667z"/>
<path d="M8.667 27.333v-2.667h-6.667v2.667h6.667z"/>
<path d="M30 27.333v-2.667h-6.667v2.667h6.667z"/>
<path d="M19.333 27.333v-2.667h-6.667v2.667h6.667z"/>
</symbol>

<symbol id="quotesLeft" viewBox="0 0 144 170" fill="none" xmlns="http://www.w3.org/2000/svg">
<path d="M76.2353 169.412H39.5294L0 84.7059L39.5294 0H76.2353L36.7059 84.7059L76.2353 169.412ZM144 169.412H107.294L67.7647 84.7059L107.294 0H144L104.471 84.7059L144 169.412Z" fill="white" fill-opacity="0.2"/>
</symbol>
<symbol id="quotesRight" viewBox="0 0 144 170" fill="none" xmlns="http://www.w3.org/2000/svg">
<path d="M104.471 169.412H67.7647L107.294 84.7059L67.7647 0H104.471L144 84.7059L104.471 169.412ZM36.7059 169.412H0L39.5294 84.7059L0 0H36.7059L76.2353 84.7059L36.7059 169.412Z" fill="white" fill-opacity="0.2"/>
</symbol>
<symbol id="sliderArrowLeft" viewBox="0 0 15 24" xmlns="http://www.w3.org/2000/svg">
<path fill-rule="evenodd" clip-rule="evenodd" d="M4.81065 12.0394L14.5883 2.26184L12.4669 0.14052L0.552507 12.055L2.67383 14.1763L2.68933 14.1608L12.517 23.9884L14.6383 21.8671L4.81065 12.0394Z"/>
</symbol>
<symbol id="sliderArrowRight" viewBox="0 0 15 24" xmlns="http://www.w3.org/2000/svg">
<path fill-rule="evenodd" clip-rule="evenodd" d="M10.1896 11.9606L0.411988 21.7382L2.53331 23.8595L14.4477 11.9451L12.3264 9.82373L12.3109 9.83923L2.48328 0.0115969L0.361956 2.13292L10.1896 11.9606Z"/>
</symbol>
<symbol id="vk" viewBox="0 0 20 20" fill="none" xmlns="http://www.w3.org/2000/svg">
<path d="M13.074 0H6.93798C1.33398 0 0.000976562 1.333 0.000976562 6.927V13.063C0.000976562 18.666 1.32398 20 6.92798 20H13.064C18.667 20 20.001 18.677 20.001 13.073V6.937C20.001 1.333 18.678 0 13.074 0ZM16.147 14.27H14.688C14.136 14.27 13.97 13.823 12.98 12.833C12.116 12 11.751 11.896 11.532 11.896C11.23 11.896 11.147 11.979 11.147 12.396V13.708C11.147 14.063 11.032 14.271 10.105 14.271C9.20532 14.2105 8.3329 13.9372 7.55958 13.4735C6.78625 13.0098 6.13415 12.3691 5.65698 11.604C4.52415 10.194 3.73592 8.53913 3.35498 6.771C3.35498 6.552 3.43798 6.354 3.85498 6.354H5.31298C5.68798 6.354 5.82298 6.521 5.96998 6.906C6.67798 8.99 7.88598 10.802 8.37598 10.802C8.56398 10.802 8.64598 10.719 8.64598 10.25V8.104C8.58398 7.125 8.06398 7.042 8.06398 6.688C8.07066 6.59463 8.11344 6.50753 8.18326 6.44518C8.25309 6.38283 8.34445 6.35012 8.43798 6.354H10.73C11.043 6.354 11.147 6.51 11.147 6.885V9.781C11.147 10.094 11.282 10.198 11.376 10.198C11.564 10.198 11.709 10.094 12.053 9.75C12.7918 8.84895 13.3955 7.84508 13.845 6.77C13.8909 6.64086 13.9779 6.5303 14.0925 6.45519C14.2072 6.38008 14.3432 6.34454 14.48 6.354H15.939C16.376 6.354 16.469 6.573 16.376 6.885C15.8455 8.07343 15.189 9.20155 14.418 10.25C14.261 10.49 14.198 10.615 14.418 10.896C14.563 11.115 15.074 11.542 15.418 11.948C15.9179 12.4466 16.333 13.0236 16.647 13.656C16.772 14.062 16.563 14.271 16.147 14.271V14.27Z" fill="black"/>
</symbol>
<symbol id="sliderArrowLeft2" viewBox="0 0 16 16" xmlns="http://www.w3.org/2000/svg">
<path d="M8.70711 2.70711L9.41421 2L8 0.585786L7.29289 1.29289L8.70711 2.70711ZM2 8L1.29289 7.29289L0.585786 8L1.29289 8.70711L2 8ZM7.29289 14.7071L8 15.4142L9.41421 14L8.70711 13.2929L7.29289 14.7071ZM7.29289 1.29289L1.29289 7.29289L2.70711 8.70711L8.70711 2.70711L7.29289 1.29289ZM1.29289 8.70711L7.29289 14.7071L8.70711 13.2929L2.70711 7.29289L1.29289 8.70711ZM2 9L14 9L14 7L2 7L2 9Z"/>
</symbol>

<symbol id="sliderArrowRight2" viewBox="0 0 16 16" xmlns="http://www.w3.org/2000/svg">
<path d="M7.29289 13.2929L6.58579 14L8 15.4142L8.70711 14.7071L7.29289 13.2929ZM14 8L14.7071 8.70711L15.4142 8L14.7071 7.29289L14 8ZM8.70711 1.29289L8 0.585786L6.58578 2L7.29289 2.70711L8.70711 1.29289ZM8.70711 14.7071L14.7071 8.70711L13.2929 7.29289L7.29289 13.2929L8.70711 14.7071ZM14.7071 7.29289L8.70711 1.29289L7.29289 2.70711L13.2929 8.70711L14.7071 7.29289ZM14 7L2 7L2 9L14 9L14 7Z"/>
</symbol>
  <symbol id="pokup" viewBox="0 0 24 24" fill="none" xmlns="http://www.w3.org/2000/svg">
  <g clip-path="url(#clip0_6603_118679)">
  <path d="M13 5V7H11V5H13Z" fill="white"/>
  <path d="M11 15V11H9V9H13V15H16V17H8V15H11Z" fill="white"/>
  <path fill-rule="evenodd" clip-rule="evenodd" d="M0 12C0 5.4 5.4 0 12 0C18.6 0 24 5.4 24 12C24 18.6 18.6 24 12 24C5.4 24 0 18.6 0 12ZM22 12C22 6.5 17.5 2 12 2C6.5 2 2 6.5 2 12C2 17.5 6.5 22 12 22C17.5 22 22 17.5 22 12Z" fill="white"/>
  </g>
  
  </symbol>

</symbol></symbol></symbol></svg>